<svg width="26" height="24" viewBox="0 0 26 24" fill="none" xmlns="http://www.w3.org/2000/svg">
<path d="M22.1729 3.60989H22.136V3.57284C22.136 1.91759 20.7893 0.571045 19.134 0.571045H3.80175C2.14635 0.571045 0.799805 1.91759 0.799805 3.57284V12.956C0.799805 14.5761 2.08982 15.9008 3.69672 15.956V20.3022L5.82759 18.8197C6.14433 18.9337 6.48517 18.9968 6.84074 18.9968H16.0345L22.2779 23.3411V18.9951C23.8848 18.9396 25.1748 17.6153 25.1748 15.9948V6.61169C25.1748 4.95643 23.8282 3.60989 22.1729 3.60989ZM2.22803 12.956V3.57284C2.22803 2.7052 2.93396 1.99927 3.80175 1.99927H19.134C20.0018 1.99927 20.7077 2.7052 20.7077 3.57284V12.956C20.7077 13.8238 20.0018 14.5297 19.134 14.5297H9.49202L5.12494 17.5685V14.5297H3.80175C2.93396 14.5297 2.22803 13.8238 2.22803 12.956ZM23.7466 15.9948C23.7466 16.8626 23.0406 17.5685 22.1729 17.5685H20.8497V20.6074L16.4826 17.5685H7.62537L9.94013 15.9579H19.134C20.7893 15.9579 22.136 14.6112 22.136 12.956V5.03811H22.1729C23.0406 5.03811 23.7466 5.74404 23.7466 6.61169V15.9948Z" fill="#3C64B1"/>
<path d="M7.90015 7.2832H9.32242V8.70547H7.90015V7.2832Z" fill="#3C64B1"/>
<path d="M10.7566 7.2832H12.1789V8.70547H10.7566V7.2832Z" fill="#3C64B1"/>
<path d="M13.613 7.3147H15.0353V8.73697H13.613V7.3147Z" fill="#3C64B1"/>
</svg>
