<svg width="22" height="22" viewBox="0 0 22 22" fill="none" xmlns="http://www.w3.org/2000/svg">
<path fill-rule="evenodd" clip-rule="evenodd" d="M0 1.99961C0 0.895258 0.887433 0 1.99961 0H8.00039C9.10474 0 10 0.887433 10 1.99961V8.00039C10 9.10474 9.11257 10 8.00039 10H1.99961C0.895258 10 0 9.11257 0 8.00039V1.99961ZM12 1.99961C12 0.895258 12.8874 0 13.9996 0H20.0004C21.1047 0 22 0.887433 22 1.99961V8.00039C22 9.10474 21.1126 10 20.0004 10H13.9996C12.8953 10 12 9.11257 12 8.00039V1.99961ZM12 13.9996C12 12.8953 12.8874 12 13.9996 12H20.0004C21.1047 12 22 12.8874 22 13.9996V20.0004C22 21.1047 21.1126 22 20.0004 22H13.9996C12.8953 22 12 21.1126 12 20.0004V13.9996ZM0 13.9996C0 12.8953 0.887433 12 1.99961 12H8.00039C9.10474 12 10 12.8874 10 13.9996V20.0004C10 21.1047 9.11257 22 8.00039 22H1.99961C0.895258 22 0 21.1126 0 20.0004V13.9996Z" fill="currentColor"/>
</svg>
