<svg width="24" height="23" viewBox="0 0 24 23" fill="none" xmlns="http://www.w3.org/2000/svg">
<path fill-rule="evenodd" clip-rule="evenodd" d="M21.592 17.9886C20.2845 17.2386 19.0235 16.8696 18.0341 16.6466C18.0361 16.6456 18.0381 16.6456 18.0401 16.6446C17.9412 16.6226 17.8523 16.6046 17.7584 16.5856C17.6969 16.5726 17.6353 16.5586 17.5757 16.5476C17.0093 16.4316 16.564 16.3586 16.3207 16.2796C15.6816 16.0686 14.9941 15.8456 14.9941 14.9456C14.9941 14.0467 14.982 13.9287 15.2 13.8087C15.615 13.5767 15.8603 13.2187 15.9149 12.9407C16.0158 12.4217 16.0683 10.9677 16.1996 10.7827C16.3308 10.5938 16.5661 10.7547 16.6468 10.3288C16.7246 9.90277 16.7246 9.52878 16.8023 9.36978C16.8811 9.20979 17.1557 8.17781 16.9861 7.82382C16.8346 7.50783 16.56 7.67283 16.5408 7.47683C16.5075 7.15784 17.0941 4.47991 16.6973 3.34594C16.4742 2.70296 16.0027 2.10697 15.9987 2.09297C15.7099 1.052 13.7179 0.494016 13.2191 0.280022C12.7204 0.0670275 11.2534 -0.225965 10.2569 0.280022C9.26038 0.787009 8.99283 1.46899 8.57181 1.73498C8.15281 2.00298 7.70555 2.16597 7.29362 3.34594C6.89683 4.47991 7.48343 7.15784 7.45112 7.47683C7.43194 7.67283 7.15631 7.50783 7.00688 7.82382C6.83525 8.17781 7.11087 9.20979 7.18862 9.36978C7.26737 9.52878 7.26737 9.90277 7.34713 10.3288C7.42487 10.7547 7.66011 10.5938 7.79238 10.7827C7.92363 10.9677 7.97613 12.4217 8.07709 12.9407C8.1306 13.2187 8.37695 13.5767 8.79191 13.8087C9.00898 13.9287 8.99787 14.0467 8.99787 14.9456C8.99787 15.8456 8.31133 16.0686 7.67021 16.2796C6.98366 16.5056 4.74228 16.6346 2.38378 17.9886C0.356443 19.1515 0.489714 22.4994 0.489714 22.4994H9.44615H11.5007H23.4861C23.4861 22.4994 23.6204 19.1515 21.592 17.9886Z" fill="currentColor"/>
</svg>
